# xmcd
#
# Track frame offsets:
#	182
#	25910
#	45767
#	72127
#
# Disc length: 1412 seconds
#
# Revision: 2
# Processed by: cddbd v1.5.1PL2 Copyright (c) Steve Scherf et al.
# Submitted via: dBpowerAMP V4.0
#
DISCID=25058204
DTITLE=Diana Ross - You're Gonna Love It
DYEAR=1991
DGENRE=blues
TTITLE0=You're Gonna Love It (Smooth Groove Extended Mix)
TTITLE1=You're Gonna Love It (Groovy House Radio Edit)
TTITLE2=You're Gonna Love It (Town House mix)
TTITLE3=You're Gonna Love It (Undergroung Mix)
EXTD=
EXTT0=
EXTT1=
EXTT2=
EXTT3=
PLAYORDER=
